<svg id="레이어_1" data-name="레이어 1" xmlns="http://www.w3.org/2000/svg" viewBox="0 0 20.7 19.8"><defs><style>.cls-1{fill:#040000;}.cls-2{fill:#fff;}.cls-3{fill:#d4d4d4;}.cls-4{fill:#555656;}.cls-5{fill:#ababab;}.cls-6{fill:#7f8080;}.cls-7{fill:#282828;}.cls-8{fill:#eab628;}.cls-9{fill:#e6852c;}.cls-10{fill:#831b3d;}.cls-11{fill:#dd5738;}.cls-12{fill:#24a79c;}.cls-13{fill:#5bb17c;}.cls-14{fill:#dbcd59;}.cls-15{fill:#a0c35d;}.cls-16{fill:#2a728d;}.cls-17{fill:#b01c37;}.cls-18{fill:#4b1c45;}.cls-19{fill:#373b65;}</style></defs><path class="cls-1" d="M15.85,15.5Z" transform="translate(-1.65 -2.1)"/><polygon class="cls-1" points="14.2 13.4 14.2 13.4 14.2 13.4 14.2 13.4"/><path class="cls-2" d="M15.85,15.5l6.3,1.7a5.5371,5.5371,0,0,0,.2-1.8,7.772,7.772,0,0,0-.2-1.6l-6.3,1.7Z" transform="translate(-1.65 -2.1)"/><path class="cls-3" d="M22.15,13.8a6.9084,6.9084,0,0,0-1.7-3l-4.7,4.7Z" transform="translate(-1.65 -2.1)"/><polygon class="cls-1" points="14.2 13.4 14.2 13.4 14.2 13.4 14.2 13.4"/><path class="cls-1" d="M15.85,15.5Z" transform="translate(-1.65 -2.1)"/><path class="cls-1" d="M15.85,15.5Z" transform="translate(-1.65 -2.1)"/><path class="cls-1" d="M15.85,15.5Z" transform="translate(-1.65 -2.1)"/><polygon class="cls-1" points="14.2 13.4 14.2 13.4 14.2 13.4 14.2 13.4"/><path class="cls-4" d="M15.85,15.5l-1.8-6.4a6.9084,6.9084,0,0,0-3,1.7l4.8,4.7Z" transform="translate(-1.65 -2.1)"/><path class="cls-5" d="M15.85,15.5l4.7-4.7a6.3846,6.3846,0,0,0-3-1.7l-1.7,6.4Z" transform="translate(-1.65 -2.1)"/><path class="cls-4" d="M11.25,20.1a6.5694,6.5694,0,0,0,2.9,1.7l1.7-6.3Z" transform="translate(-1.65 -2.1)"/><path class="cls-6" d="M14.15,21.7a8.8068,8.8068,0,0,0,1.7.2,9.8524,9.8524,0,0,0,1.7-.2l-1.7-6.3Z" transform="translate(-1.65 -2.1)"/><path class="cls-3" d="M22.15,17.2l-6.3-1.7h0l4.6,4.6A6.5694,6.5694,0,0,0,22.15,17.2Z" transform="translate(-1.65 -2.1)"/><path class="cls-5" d="M17.45,21.7a6.5694,6.5694,0,0,0,2.9-1.7l-4.6-4.6Z" transform="translate(-1.65 -2.1)"/><path class="cls-7" d="M15.85,15.5l-6.3,1.7a6.5694,6.5694,0,0,0,1.7,2.9l4.6-4.6Z" transform="translate(-1.65 -2.1)"/><path class="cls-6" d="M15.85,15.5h0l1.7-6.4a8.8068,8.8068,0,0,0-1.7-.2,8.8068,8.8068,0,0,0-1.7.2l1.7,6.4Z" transform="translate(-1.65 -2.1)"/><path class="cls-7" d="M11.15,10.8a6.3846,6.3846,0,0,0-1.7,3l6.4,1.7Z" transform="translate(-1.65 -2.1)"/><path class="cls-1" d="M15.85,15.5l-6.4-1.7a8.7524,8.7524,0,0,0-.2,1.6,11.019,11.019,0,0,0,.2,1.8l6.4-1.7Z" transform="translate(-1.65 -2.1)"/><circle class="cls-2" cx="14.2" cy="13.3" r="2.9"/><path class="cls-1" d="M8.25,8.7Z" transform="translate(-1.65 -2.1)"/><path class="cls-1" d="M8.25,8.7Z" transform="translate(-1.65 -2.1)"/><path class="cls-8" d="M8.25,8.7l6.3,1.7a5.5371,5.5371,0,0,0,.2-1.8,7.772,7.772,0,0,0-.2-1.6L8.25,8.7Z" transform="translate(-1.65 -2.1)"/><path class="cls-9" d="M14.55,7a6.9084,6.9084,0,0,0-1.7-3L8.15,8.7Z" transform="translate(-1.65 -2.1)"/><path class="cls-1" d="M8.25,8.7Z" transform="translate(-1.65 -2.1)"/><path class="cls-1" d="M8.25,8.7Z" transform="translate(-1.65 -2.1)"/><path class="cls-1" d="M8.25,8.7Z" transform="translate(-1.65 -2.1)"/><path class="cls-1" d="M8.25,8.7Z" transform="translate(-1.65 -2.1)"/><path class="cls-1" d="M8.25,8.7Z" transform="translate(-1.65 -2.1)"/><path class="cls-10" d="M8.25,8.7,6.55,2.3a5.7991,5.7991,0,0,0-3,1.8l4.7,4.6Z" transform="translate(-1.65 -2.1)"/><path class="cls-11" d="M8.25,8.7l4.6-4.6a6.3846,6.3846,0,0,0-3-1.7L8.25,8.7Z" transform="translate(-1.65 -2.1)"/><path class="cls-12" d="M3.65,13.3A6.5694,6.5694,0,0,0,6.55,15l1.7-6.3Z" transform="translate(-1.65 -2.1)"/><path class="cls-13" d="M6.55,15a8.8068,8.8068,0,0,0,1.7.2,9.8524,9.8524,0,0,0,1.7-.2L8.25,8.7Z" transform="translate(-1.65 -2.1)"/><path class="cls-14" d="M14.55,10.4,8.25,8.7h0l4.6,4.6A6.5694,6.5694,0,0,0,14.55,10.4Z" transform="translate(-1.65 -2.1)"/><path class="cls-15" d="M9.85,15a6.5694,6.5694,0,0,0,2.9-1.7L8.15,8.7Z" transform="translate(-1.65 -2.1)"/><path class="cls-16" d="M8.25,8.7l-6.3,1.7a6.5694,6.5694,0,0,0,1.7,2.9l4.6-4.6Z" transform="translate(-1.65 -2.1)"/><path class="cls-17" d="M8.25,8.7h0l1.7-6.4a9.8524,9.8524,0,0,0-1.7-.2,8.8068,8.8068,0,0,0-1.7.2l1.7,6.4Z" transform="translate(-1.65 -2.1)"/><path class="cls-18" d="M3.55,4.1a6.3846,6.3846,0,0,0-1.7,3l6.4,1.7Z" transform="translate(-1.65 -2.1)"/><path class="cls-19" d="M8.25,8.7,1.85,7a9.8524,9.8524,0,0,0-.2,1.7,11.019,11.019,0,0,0,.2,1.8l6.4-1.8Z" transform="translate(-1.65 -2.1)"/><circle class="cls-2" cx="6.6" cy="6.6" r="2.9"/></svg>