<?xml version="1.0" encoding="utf-8"?>
<!-- Generator: Adobe Illustrator 25.1.0, SVG Export Plug-In . SVG Version: 6.00 Build 0)  -->
<svg version="1.1" id="레이어_1" xmlns="http://www.w3.org/2000/svg" xmlns:xlink="http://www.w3.org/1999/xlink" x="0px"
	 y="0px" viewBox="0 0 32 37" style="enable-background:new 0 0 32 37;" xml:space="preserve">
<style type="text/css">
	.st0{fill-rule:evenodd;clip-rule:evenodd;fill:#E83818;}
	.st1{fill:#FFFFFF;}
	.st2{fill:#D4D4D4;}
	.st3{fill:#555555;}
	.st4{fill:#AAAAAA;}
	.st5{fill:#808080;}
	.st6{fill:#282828;}
	.st7{fill:#F4BC1B;}
	.st8{fill:#F08826;}
	.st9{fill:#881C3F;}
	.st10{fill:#E95738;}
	.st11{fill:#18AFA3;}
	.st12{fill:#5AB880;}
	.st13{fill:#E3D456;}
	.st14{fill:#A5CB5C;}
	.st15{fill:#297693;}
	.st16{fill:#BA1938;}
	.st17{fill:#4D1D47;}
	.st18{fill:#393C68;}
</style>
<path class="st0" d="M18.4,31.8C26.1,30.7,32,24,32,16c0-8.8-7.2-16-16-16S0,7.2,0,16c0,8,5.9,14.7,13.6,15.8l1.5,2.7
	c0.4,0.7,1.3,0.7,1.7,0L18.4,31.8z"/>
<circle class="st1" cx="16" cy="16" r="14"/>
<g>
	<g>
		<polygon points="20.1,19.4 20.1,19.4 20.1,19.4 		"/>
		<rect x="20.1" y="19.4" width="0" height="0"/>
		<path class="st1" d="M20.1,19.4l6.3,1.7c0.2-0.6,0.2-1.2,0.2-1.8c0-0.6-0.1-1.1-0.2-1.6L20.1,19.4L20.1,19.4z"/>
		<path class="st2" d="M26.4,17.7c-0.3-1.1-0.9-2.2-1.7-3l-4.7,4.7L26.4,17.7z"/>
		<rect x="20.1" y="19.4" width="0" height="0"/>
		<polygon points="20.1,19.4 20.1,19.4 20.1,19.4 		"/>
		<polygon points="20.1,19.4 20.1,19.4 20.1,19.4 		"/>
		<polygon points="20.1,19.4 20.1,19.4 20.1,19.4 		"/>
		<rect x="20.1" y="19.4" width="0" height="0"/>
		<path class="st3" d="M20.1,19.4L18.3,13c-1.1,0.3-2.2,0.9-3,1.7L20.1,19.4L20.1,19.4z"/>
		<path class="st4" d="M20.1,19.4l4.7-4.7c-0.8-0.8-1.8-1.4-3-1.7L20.1,19.4L20.1,19.4z"/>
		<path class="st3" d="M15.5,24c0.8,0.8,1.8,1.4,2.9,1.7l1.7-6.3L15.5,24z"/>
		<path class="st5" d="M18.4,25.6c0.5,0.1,1.1,0.2,1.7,0.2s1.1-0.1,1.7-0.2l-1.7-6.3L18.4,25.6z"/>
		<path class="st2" d="M26.4,21.1l-6.3-1.7l0,0l4.6,4.6C25.5,23.2,26.1,22.2,26.4,21.1z"/>
		<path class="st4" d="M21.7,25.6c1.1-0.3,2.1-0.9,2.9-1.7l-4.6-4.6L21.7,25.6z"/>
		<path class="st6" d="M20.1,19.4l-6.3,1.7c0.3,1.1,0.9,2.1,1.7,2.9L20.1,19.4L20.1,19.4z"/>
		<path class="st5" d="M20.1,19.4L20.1,19.4l1.7-6.4c-0.5-0.1-1.1-0.2-1.7-0.2s-1.2,0.1-1.7,0.2L20.1,19.4L20.1,19.4z"/>
		<path class="st6" d="M15.4,14.7c-0.8,0.8-1.4,1.8-1.7,3l6.4,1.7L15.4,14.7z"/>
		<path d="M20.1,19.4l-6.4-1.7c-0.1,0.5-0.2,1.1-0.2,1.6c0,0.6,0.1,1.2,0.2,1.8L20.1,19.4L20.1,19.4z"/>
	</g>
	<circle class="st1" cx="20.1" cy="19.3" r="2.9"/>
</g>
<g>
	<g>
		<path d="M12.5,12.6L12.5,12.6L12.5,12.6z"/>
		<polygon points="12.5,12.6 12.5,12.6 12.5,12.6 		"/>
		<path class="st7" d="M12.5,12.6l6.3,1.7c0.2-0.6,0.2-1.2,0.2-1.8s-0.1-1.1-0.2-1.6L12.5,12.6L12.5,12.6z"/>
		<path class="st8" d="M18.8,10.9c-0.3-1.1-0.9-2.2-1.7-3l-4.7,4.7L18.8,10.9z"/>
		<polygon points="12.5,12.6 12.5,12.6 12.5,12.6 		"/>
		<path d="M12.5,12.6L12.5,12.6L12.5,12.6z"/>
		<path d="M12.5,12.6L12.5,12.6L12.5,12.6z"/>
		<path d="M12.5,12.6L12.5,12.6L12.5,12.6z"/>
		<polygon points="12.5,12.6 12.5,12.6 12.5,12.6 		"/>
		<path class="st9" d="M12.5,12.6l-1.7-6.4C9.6,6.5,8.6,7.1,7.8,8L12.5,12.6L12.5,12.6z"/>
		<path class="st10" d="M12.5,12.6L17.1,8c-0.8-0.8-1.8-1.4-3-1.7L12.5,12.6L12.5,12.6z"/>
		<path class="st11" d="M7.9,17.2c0.8,0.8,1.8,1.4,2.9,1.7l1.7-6.3L7.9,17.2z"/>
		<path class="st12" d="M10.8,18.9c0.5,0.1,1.1,0.2,1.7,0.2s1.1-0.1,1.7-0.2l-1.7-6.3L10.8,18.9z"/>
		<path class="st13" d="M18.8,14.3l-6.3-1.7l0,0l4.6,4.6C17.9,16.4,18.5,15.4,18.8,14.3z"/>
		<path class="st14" d="M14.1,18.9c1.1-0.3,2.1-0.9,2.9-1.7l-4.6-4.6L14.1,18.9z"/>
		<path class="st15" d="M12.5,12.6l-6.3,1.7c0.3,1.1,0.9,2.1,1.7,2.9L12.5,12.6L12.5,12.6z"/>
		<path class="st16" d="M12.5,12.6L12.5,12.6l1.7-6.4C13.6,6.1,13.1,6,12.5,6s-1.2,0.1-1.7,0.2L12.5,12.6L12.5,12.6z"/>
		<path class="st17" d="M7.8,8C7,8.8,6.4,9.8,6.1,11l6.4,1.7L7.8,8z"/>
		<path class="st18" d="M12.5,12.6l-6.4-1.7C6,11.5,5.9,12,5.9,12.6s0.1,1.2,0.2,1.8L12.5,12.6L12.5,12.6z"/>
	</g>
	<circle class="st1" cx="12.5" cy="12.6" r="2.9"/>
</g>
</svg>
