<svg id="레이어_1" data-name="레이어 1" xmlns="http://www.w3.org/2000/svg" viewBox="0 0 13.1213 13.1214"><defs><style>.cls-1{fill:#f5bd1b;}.cls-2{fill:#f18926;}.cls-3{fill:#891c3f;}.cls-4{fill:#ea5738;}.cls-5{fill:#18b0a4;}.cls-6{fill:#5ab980;}.cls-7{fill:#e4d556;}.cls-8{fill:#a6cc5c;}.cls-9{fill:#297694;}.cls-10{fill:#bb1938;}.cls-11{fill:#4d1d47;}.cls-12{fill:#3a3c68;}.cls-13{fill:#fff;}</style></defs><polygon points="6.561 6.639 6.561 6.639 6.561 6.639 6.561 6.639"/><rect x="6.5607" y="6.6394"/><path class="cls-1" d="M8,8.0787,14.3122,9.77A6.3941,6.3941,0,0,0,14.35,6.3772L8,8.0787Z" transform="translate(-1.4393 -1.4393)"/><path class="cls-2" d="M14.35,6.3772a6.5466,6.5466,0,0,0-1.6735-2.9751L8,8.0787Z" transform="translate(-1.4393 -1.4393)"/><rect x="6.5607" y="6.6394"/><polygon points="6.561 6.639 6.561 6.639 6.561 6.639 6.561 6.639"/><polygon points="6.561 6.639 6.561 6.639 6.561 6.639 6.561 6.639"/><polygon points="6.561 6.639 6.561 6.639 6.561 6.639 6.561 6.639"/><rect x="6.5606" y="6.6394"/><path class="cls-3" d="M8,8.0787,6.2838,1.6739a6.5488,6.5488,0,0,0-2.96,1.7282L8,8.0787Z" transform="translate(-1.4393 -1.4393)"/><path class="cls-4" d="M8,8.0787l4.6765-4.6766a6.5488,6.5488,0,0,0-2.96-1.7282L8,8.0787Z" transform="translate(-1.4393 -1.4393)"/><path class="cls-5" d="M3.4022,12.6766a6.5465,6.5465,0,0,0,2.9211,1.66L8,8.0787Z" transform="translate(-1.4393 -1.4393)"/><path class="cls-6" d="M6.3233,14.3362a6.3735,6.3735,0,0,0,3.3534,0L8,8.0787Z" transform="translate(-1.4393 -1.4393)"/><path class="cls-7" d="M14.3122,9.77,8,8.0787H8l4.5978,4.5979A6.55,6.55,0,0,0,14.3122,9.77Z" transform="translate(-1.4393 -1.4393)"/><path class="cls-8" d="M9.6767,14.3362a6.5465,6.5465,0,0,0,2.9211-1.66L8,8.0787Z" transform="translate(-1.4393 -1.4393)"/><path class="cls-9" d="M8,8.0787,1.6878,9.77a6.55,6.55,0,0,0,1.7144,2.9066L8,8.0787Z" transform="translate(-1.4393 -1.4393)"/><path class="cls-10" d="M8,8.0787H8L9.7162,1.6739a6.3947,6.3947,0,0,0-3.4324,0L8,8.0787Z" transform="translate(-1.4393 -1.4393)"/><path class="cls-11" d="M3.3234,3.4021A6.5466,6.5466,0,0,0,1.65,6.3772L8,8.0787Z" transform="translate(-1.4393 -1.4393)"/><path class="cls-12" d="M8,8.0787,1.65,6.3772A6.3941,6.3941,0,0,0,1.6878,9.77L8,8.0787Z" transform="translate(-1.4393 -1.4393)"/><circle class="cls-13" cx="6.5607" cy="6.5607" r="2.9151"/></svg>