<svg width="28" height="32" viewBox="0 0 28 32" fill="none" xmlns="http://www.w3.org/2000/svg">
<path fill-rule="evenodd" clip-rule="evenodd" d="M16.8947 26.7308C22.9713 25.4056 27.5213 19.9944 27.5213 13.5204C27.5213 6.05303 21.4678 -0.000488281 14.0004 -0.000488281C6.53301 -0.000488281 0.479492 6.05303 0.479492 13.5204C0.479492 19.9942 5.02921 25.4053 11.1056 26.7307C11.1246 26.7759 11.1479 26.8204 11.1758 26.8639L13.2889 30.1579C13.6214 30.6762 14.3789 30.6762 14.7114 30.1579L16.8245 26.8639C16.8524 26.8204 16.8757 26.7759 16.8947 26.7308Z" fill="#2784FF"/>
<circle cx="13.9995" cy="13.3057" r="11.583" fill="white"/>
<path d="M10.3887 11.1954V6.98242H17.6109V11.1954" stroke="#2784FF" stroke-width="1.44444" stroke-linecap="round" stroke-linejoin="round"/>
<path d="M10.3893 16.611H9.18564C8.8664 16.611 8.56023 16.4842 8.33449 16.2584C8.10875 16.0327 7.98193 15.7265 7.98193 15.4073V12.398C7.98193 12.0788 8.10875 11.7726 8.33449 11.5469C8.56023 11.3212 8.8664 11.1943 9.18564 11.1943H18.8153C19.1345 11.1943 19.4407 11.3212 19.6664 11.5469C19.8922 11.7726 20.019 12.0788 20.019 12.398V15.4073C20.019 15.7265 19.8922 16.0327 19.6664 16.2584C19.4407 16.4842 19.1345 16.611 18.8153 16.611H17.6116" stroke="#2784FF" stroke-width="1.44444" stroke-linecap="round" stroke-linejoin="round"/>
<path d="M17.6109 14.2046H10.3887V19.0194H17.6109V14.2046Z" stroke="#2784FF" stroke-width="1.44444" stroke-linecap="round" stroke-linejoin="round"/>
</svg>
