<svg width="22" height="30" viewBox="0 0 22 30" fill="none" xmlns="http://www.w3.org/2000/svg">
<path d="M11 27L10.352 27.7616L11.0095 28.3211L11.6589 27.7523L11 27ZM11 27C11.6589 27.7523 11.6591 27.7521 11.6594 27.7518L11.66 27.7512L11.662 27.7495L11.6684 27.7438L11.6908 27.724C11.7099 27.707 11.7373 27.6824 11.7725 27.6506C11.8427 27.587 11.9439 27.4941 12.0717 27.374C12.3272 27.1338 12.6893 26.784 13.1224 26.3396C13.9875 25.4519 15.142 24.181 16.2985 22.6471C18.5832 19.6168 21 15.3987 21 11.009C21 5.48213 16.5238 1 11 1C5.47621 1 1 5.48213 1 11.009C1 15.5088 3.41359 19.7256 5.70428 22.7352C6.8623 24.2566 8.01833 25.5076 8.88482 26.3786C9.31863 26.8146 9.68134 27.1569 9.93743 27.3917C10.0655 27.5092 10.167 27.5998 10.2376 27.662C10.2728 27.6931 10.3004 27.7171 10.3196 27.7338L10.3422 27.7533L10.3487 27.7589L10.3508 27.7606L10.3515 27.7612C10.3517 27.7614 10.352 27.7616 11 27Z" fill="#59C5C8" stroke="white" stroke-width="2"/>
</svg>
