<?xml version="1.0" encoding="utf-8"?>
<!-- Generator: Adobe Illustrator 25.1.0, SVG Export Plug-In . SVG Version: 6.00 Build 0)  -->
<svg version="1.1" id="레이어_1" xmlns="http://www.w3.org/2000/svg" xmlns:xlink="http://www.w3.org/1999/xlink" x="0px"
	 y="0px" viewBox="0 0 22 30" style="enable-background:new 0 0 22 30;" xml:space="preserve">
<style type="text/css">
	.st0{fill:#E83818;stroke:#FFFFFF;stroke-width:2;}
</style>
<path class="st0" d="M11,27l-0.6,0.8l0.7,0.6l0.6-0.6L11,27z M11,27c0.7,0.8,0.7,0.8,0.7,0.8l0,0l0,0l0,0l0,0c0,0,0,0,0.1-0.1
	c0.1-0.1,0.2-0.2,0.3-0.3c0.3-0.2,0.6-0.6,1.1-1c0.9-0.9,2-2.2,3.2-3.7c2.3-3,4.7-7.2,4.7-11.6c0-5.5-4.5-10-10-10C5.5,1,1,5.5,1,11
	c0,4.5,2.4,8.7,4.7,11.7c1.2,1.5,2.3,2.8,3.2,3.6c0.4,0.4,0.8,0.8,1.1,1c0.1,0.1,0.2,0.2,0.3,0.3c0,0,0.1,0.1,0.1,0.1l0,0l0,0l0,0
	l0,0C10.4,27.8,10.4,27.8,11,27z"/>
</svg>
