<svg width="23" height="30" viewBox="0 0 23 30" fill="none" xmlns="http://www.w3.org/2000/svg">
<mask id="path-1-outside-1_2132_7062" maskUnits="userSpaceOnUse" x="0.0615234" y="0" width="22" height="30" fill="black">
<rect fill="white" x="0.0615234" width="22" height="30"/>
<path d="M20.0615 11.009C20.0615 19.1171 11.0615 27 11.0615 27C11.0615 27 2.06152 19.3423 2.06152 11.009C2.06152 6.03347 6.09096 2 11.0615 2C16.0321 2 20.0615 6.03347 20.0615 11.009Z"/>
</mask>
<path d="M20.0615 11.009C20.0615 19.1171 11.0615 27 11.0615 27C11.0615 27 2.06152 19.3423 2.06152 11.009C2.06152 6.03347 6.09096 2 11.0615 2C16.0321 2 20.0615 6.03347 20.0615 11.009Z" fill="#2784FF"/>
<path d="M11.0615 27L9.76547 28.5232L11.0805 29.6421L12.3793 28.5045L11.0615 27ZM18.0615 11.009C18.0615 14.3918 16.1451 17.9489 13.9646 20.841C12.9026 22.2495 11.8365 23.4239 11.0355 24.2457C10.6361 24.6554 10.3056 24.9746 10.0782 25.1884C9.96466 25.2952 9.87708 25.3754 9.81984 25.4273C9.79122 25.4532 9.77021 25.472 9.75735 25.4834C9.75092 25.4892 9.74652 25.4931 9.74424 25.4951C9.74309 25.4961 9.74248 25.4966 9.7424 25.4967C9.74235 25.4967 9.74245 25.4967 9.74268 25.4965C9.74279 25.4964 9.74306 25.4961 9.74312 25.4961C9.74343 25.4958 9.74377 25.4955 11.0615 27C12.3793 28.5045 12.3797 28.5041 12.3801 28.5038C12.3803 28.5036 12.3808 28.5032 12.3812 28.5028C12.382 28.5021 12.3829 28.5013 12.3839 28.5004C12.386 28.4986 12.3887 28.4962 12.3919 28.4934C12.3982 28.4878 12.4067 28.4803 12.4173 28.4708C12.4385 28.452 12.4681 28.4255 12.5054 28.3917C12.5799 28.3241 12.6857 28.2271 12.8182 28.1025C13.0831 27.8535 13.4557 27.4935 13.9 27.0375C14.7866 26.1279 15.9705 24.8248 17.1585 23.2491C19.478 20.1727 22.0615 15.7343 22.0615 11.009H18.0615ZM11.0615 27C12.3576 25.4768 12.3579 25.4771 12.3583 25.4774C12.3583 25.4774 12.3586 25.4777 12.3588 25.4778C12.359 25.478 12.3592 25.4781 12.3591 25.4781C12.3591 25.4781 12.3586 25.4776 12.3575 25.4767C12.3554 25.4749 12.3511 25.4712 12.3448 25.4657C12.3322 25.4548 12.3115 25.4368 12.2832 25.4118C12.2265 25.3618 12.1395 25.2842 12.0265 25.1806C11.8004 24.9733 11.4711 24.6628 11.0731 24.2627C10.2749 23.4603 9.21192 22.3094 8.15297 20.9182C5.98435 18.069 4.06152 14.5095 4.06152 11.009H0.0615234C0.0615234 15.8418 2.6387 20.2778 4.97008 23.3408C6.16113 24.9056 7.34818 26.19 8.23742 27.0838C8.68316 27.5319 9.05702 27.8848 9.3231 28.1288C9.45621 28.2508 9.56258 28.3458 9.63774 28.4121C9.67533 28.4453 9.70514 28.4712 9.72661 28.4898C9.73734 28.4991 9.74599 28.5066 9.75249 28.5121C9.75574 28.5149 9.75846 28.5173 9.76062 28.5191C9.76171 28.52 9.76265 28.5208 9.76346 28.5215C9.76387 28.5219 9.76437 28.5223 9.76457 28.5225C9.76504 28.5229 9.76547 28.5232 11.0615 27ZM4.06152 11.009C4.06152 7.13615 7.19742 4 11.0615 4V0C4.9845 0 0.0615234 4.93079 0.0615234 11.009H4.06152ZM11.0615 4C14.9256 4 18.0615 7.13615 18.0615 11.009H22.0615C22.0615 4.93079 17.1385 0 11.0615 0V4Z" fill="white" mask="url(#path-1-outside-1_2132_7062)"/>
</svg>
