<svg xmlns="http://www.w3.org/2000/svg" viewBox="0 0 89.6977 29.0254"><defs><style>.cls-1{font-size:25.0894px;fill:#231815;}.cls-1,.cls-3{font-family:FranklinGothic-Heavy, Franklin Gothic Heavy;font-weight:800;}.cls-2{letter-spacing:0.0122em;}.cls-3{font-size:24.1963px;}.cls-3,.cls-4{fill:#e83818;}.cls-5,.cls-6{fill:none;stroke:#e83818;stroke-linecap:round;stroke-miterlimit:10;}.cls-5{stroke-width:2px;}.cls-6{stroke-width:2.5px;}.cls-7{fill:#fff;}</style></defs><g id="레이어_1" data-name="레이어 1"><text class="cls-1" transform="translate(27.4251 21.332) scale(0.564 1)">Sear<tspan class="cls-2" x="54.2342" y="0">c</tspan><tspan x="67.6606" y="0">h</tspan></text><text class="cls-3" transform="translate(84.0366 21.1865) scale(0.6297 1)">t</text><polygon class="cls-4" points="81.563 13.38 77.516 13.38 76.459 0 82.584 0 81.563 13.38"/></g><g id="레이어_2" data-name="레이어 2"><polyline class="cls-5" points="7.907 18.915 5.065 18.948 2.094 22.624 20.368 22.624 17.539 18.802 14.847 18.834"/><path class="cls-6" d="M4.9246,8.8751a8.96,8.96,0,0,1,12.6714,0" transform="translate(-0.3286)"/><path class="cls-6" d="M1.58,5.51a14.1135,14.1135,0,0,1,19.96,0" transform="translate(-0.3286)"/><path class="cls-4" d="M15.6824,14.5821a3.673,3.673,0,0,0,.0836-.7727A4.07,4.07,0,0,0,11.56,9.891a4.07,4.07,0,0,0-4.2065,3.9184,3.6424,3.6424,0,0,0,.0772.7129l-.01,0,.012.0189c.0027.0133.0016.0277.0044.041h.0215l4.0262,6.3514,4.2145-6.3265-2.4307-.0249Z" transform="translate(-0.3286)"/><circle class="cls-7" cx="11.2309" cy="13.782" r="2.2631"/><path class="cls-4" d="M83.1485,18.4475a2.9359,2.9359,0,0,0,.0669-.6182,3.3736,3.3736,0,0,0-6.73,0,2.9134,2.9134,0,0,0,.0617.57l-.008,0,.01.0151c.0021.0107.0013.0222.0035.0328h.0173L79.79,23.5286l3.3716-5.0612-1.9445-.02Z" transform="translate(-0.3286)"/><circle class="cls-7" cx="79.5216" cy="17.8074" r="1.8105"/></g></svg>