<svg width="71" height="27" viewBox="0 0 71 27" fill="none" xmlns="http://www.w3.org/2000/svg">
<g clip-path="url(#clip0_2132_7976)">
<path d="M0 5.07007V21.0001C0 23.5001 3.78 26.0001 9.69 26.0001H11.5C12.5322 26.004 13.5551 25.8046 14.5102 25.4133C15.4653 25.0219 16.334 24.4462 17.0667 23.7192C17.7993 22.9921 18.3816 22.1278 18.7802 21.1757C19.1789 20.2236 19.3861 19.2023 19.39 18.1701V18.1201C19.3847 16.0291 18.5518 14.0253 17.0732 12.5468C15.5947 11.0683 13.5909 10.2353 11.5 10.2301H10.93" fill="url(#paint0_linear_2132_7976)"/>
<path d="M11.16 1.58002C11.1667 1.37577 11.1324 1.17225 11.0591 0.981476C10.9858 0.7907 10.8751 0.616535 10.7334 0.469261C10.5917 0.321987 10.422 0.204589 10.2342 0.123996C10.0464 0.0434038 9.84436 0.00125026 9.64 2.38456e-05H9.3C7.94858 -0.0327138 6.59998 0.139233 5.3 0.510024C2.2 1.35002 0 3.10002 0 5.07002C0 7.89002 5.8 10.26 11.16 10.26V1.58002Z" fill="url(#paint1_linear_2132_7976)"/>
<path d="M64.0298 22.97V2.97998H67.7198V9.99998H70.5098V13.56H67.7198V22.97H64.0298Z" fill="#005F9B"/>
<path d="M53.0698 19.7901H50.0698V3.59009H53.7598V8.66009H57.7598V3.59009H61.4498V19.7701H58.4498H58.1098L53.0698 19.7901ZM57.7998 16.4301V12.0001H53.7998V16.4101L57.7998 16.4301Z" fill="#005F9B"/>
<path d="M27.1099 21.6401V18.2801H35.7299V15.7301H29.3199V3.3501H32.9999V6.3501H42.1399V3.3501H45.8199V15.7301H39.4099V18.2801H47.9999V21.6401H27.1099ZM42.1099 12.3701V9.6901H32.9999V12.3701H42.1099Z" fill="#005F9B"/>
</g>
<defs>
<linearGradient id="paint0_linear_2132_7976" x1="14.45" y1="23.3401" x2="-5.19208e-07" y2="8.80007" gradientUnits="userSpaceOnUse">
<stop stop-color="#C0CFEB"/>
<stop offset="0.99" stop-color="#80A1D4"/>
</linearGradient>
<linearGradient id="paint1_linear_2132_7976" x1="5.58" y1="9.27002" x2="5.58" y2="1.08002" gradientUnits="userSpaceOnUse">
<stop stop-color="#517ABD"/>
<stop offset="1" stop-color="#ACC1E4"/>
</linearGradient>
<clipPath id="clip0_2132_7976">
<rect width="70.51" height="26.03" fill="white"/>
</clipPath>
</defs>
</svg>
