<svg id="레이어_2" data-name="레이어 2" xmlns="http://www.w3.org/2000/svg" viewBox="0 0 22.4608 23.4971"><defs><style>.cls-1,.cls-2{fill:none;stroke:#e83818;stroke-linecap:round;stroke-miterlimit:10;}.cls-1{stroke-width:2px;}.cls-2{stroke-width:2.5px;}.cls-3{fill:#e83818;}.cls-4{fill:#fff;}</style></defs><polyline class="cls-1" points="7.907 18.788 5.065 18.822 2.094 22.497 20.368 22.497 17.539 18.676 14.847 18.707"/><path class="cls-2" d="M6.865,9.8751a8.96,8.96,0,0,1,12.6714,0" transform="translate(-2.2691 -1.1265)"/><path class="cls-2" d="M3.52,6.51a14.1136,14.1136,0,0,1,19.96,0" transform="translate(-2.2691 -1.1265)"/><path class="cls-3" d="M17.6228,15.5821a3.6664,3.6664,0,0,0,.0837-.7727A4.07,4.07,0,0,0,13.5,10.891a4.07,4.07,0,0,0-4.2065,3.9184,3.6424,3.6424,0,0,0,.0772.7129l-.01,0,.0119.0189c.0027.0133.0016.0277.0045.041h.0215l4.0262,6.3514,4.2144-6.3265-2.4306-.0249Z" transform="translate(-2.2691 -1.1265)"/><circle class="cls-4" cx="11.2309" cy="13.6555" r="2.2631"/></svg>