<svg id="레이어_1" data-name="레이어 1" xmlns="http://www.w3.org/2000/svg" viewBox="0 0 13.1213 13.1214"><defs><style>.cls-1{fill:#fff;}.cls-2{fill:#d4d4d4;}.cls-3{fill:#555;}.cls-4{fill:#aaa;}.cls-5{fill:gray;}.cls-6{fill:#282828;}</style></defs><polygon points="6.561 6.639 6.561 6.639 6.561 6.639 6.561 6.639"/><rect x="6.5607" y="6.6394"/><path class="cls-1" d="M8,8.0787,14.3122,9.77A6.3945,6.3945,0,0,0,14.35,6.3772L8,8.0787Z" transform="translate(-1.4393 -1.4393)"/><path class="cls-2" d="M14.35,6.3772a6.5472,6.5472,0,0,0-1.6735-2.9751L8,8.0787Z" transform="translate(-1.4393 -1.4393)"/><rect x="6.5607" y="6.6394"/><polygon points="6.561 6.639 6.561 6.639 6.561 6.639 6.561 6.639"/><polygon points="6.561 6.639 6.561 6.639 6.561 6.639 6.561 6.639"/><polygon points="6.561 6.639 6.561 6.639 6.561 6.639 6.561 6.639"/><rect x="6.5606" y="6.6394"/><path class="cls-3" d="M8,8.0787,6.2838,1.6739a6.5488,6.5488,0,0,0-2.96,1.7282L8,8.0787Z" transform="translate(-1.4393 -1.4393)"/><path class="cls-4" d="M8,8.0787l4.6765-4.6766a6.5488,6.5488,0,0,0-2.96-1.7282L8,8.0787Z" transform="translate(-1.4393 -1.4393)"/><path class="cls-3" d="M3.4022,12.6766a6.5465,6.5465,0,0,0,2.9211,1.66L8,8.0787Z" transform="translate(-1.4393 -1.4393)"/><path class="cls-5" d="M6.3233,14.3362a6.3735,6.3735,0,0,0,3.3534,0L8,8.0787Z" transform="translate(-1.4393 -1.4393)"/><path class="cls-2" d="M14.3122,9.77,8,8.0787H8l4.5978,4.5979A6.5492,6.5492,0,0,0,14.3122,9.77Z" transform="translate(-1.4393 -1.4393)"/><path class="cls-4" d="M9.6767,14.3362a6.5465,6.5465,0,0,0,2.9211-1.66L8,8.0787Z" transform="translate(-1.4393 -1.4393)"/><path class="cls-6" d="M8,8.0787,1.6878,9.77a6.5492,6.5492,0,0,0,1.7144,2.9065L8,8.0787Z" transform="translate(-1.4393 -1.4393)"/><path class="cls-5" d="M8,8.0787H8L9.7162,1.6739a6.3947,6.3947,0,0,0-3.4324,0L8,8.0787Z" transform="translate(-1.4393 -1.4393)"/><path class="cls-6" d="M3.3234,3.4021A6.5472,6.5472,0,0,0,1.65,6.3772L8,8.0787Z" transform="translate(-1.4393 -1.4393)"/><path d="M8,8.0787,1.65,6.3772A6.3945,6.3945,0,0,0,1.6878,9.77L8,8.0787Z" transform="translate(-1.4393 -1.4393)"/><circle class="cls-1" cx="6.5607" cy="6.5607" r="2.9151"/></svg>