<?xml version="1.0" encoding="utf-8"?>
<!-- Generator: Adobe Illustrator 25.1.0, SVG Export Plug-In . SVG Version: 6.00 Build 0)  -->
<svg version="1.1" id="레이어_1" xmlns="http://www.w3.org/2000/svg" xmlns:xlink="http://www.w3.org/1999/xlink" x="0px"
	 y="0px" viewBox="0 0 32 37" style="enable-background:new 0 0 32 37;" xml:space="preserve">
<style type="text/css">
	.st0{fill-rule:evenodd;clip-rule:evenodd;fill:#E83818;}
	.st1{fill:#FFFFFF;}
	.st2{fill:#D4D4D4;}
	.st3{fill:#555555;}
	.st4{fill:#AAAAAA;}
	.st5{fill:#808080;}
	.st6{fill:#282828;}
</style>
<path class="st0" d="M18.4,31.8C26.1,30.7,32,24,32,16c0-8.8-7.2-16-16-16S0,7.2,0,16c0,8,5.9,14.7,13.6,15.8l1.5,2.7
	c0.4,0.7,1.3,0.7,1.7,0L18.4,31.8z"/>
<circle class="st1" cx="16" cy="16" r="14"/>
<g>
	<g>
		<polygon points="16.1,16.1 16.1,16.1 16.1,16.1 		"/>
		<rect x="16.1" y="16.1" width="0" height="0"/>
		<path class="st1" d="M16.1,16.1l8.7,2.3c0.2-0.8,0.3-1.6,0.3-2.4c0-0.8-0.1-1.5-0.3-2.2L16.1,16.1L16.1,16.1z"/>
		<path class="st2" d="M24.8,13.8c-0.4-1.6-1.2-3-2.3-4.1l-6.4,6.4L24.8,13.8z"/>
		<rect x="16.1" y="16.1" width="0" height="0"/>
		<polygon points="16.1,16.1 16.1,16.1 16.1,16.1 		"/>
		<polygon points="16.1,16.1 16.1,16.1 16.1,16.1 		"/>
		<polygon points="16.1,16.1 16.1,16.1 16.1,16.1 		"/>
		<rect x="16.1" y="16.1" width="0" height="0"/>
		<path class="st3" d="M16.1,16.1l-2.4-8.8c-1.6,0.4-3,1.2-4.1,2.4L16.1,16.1L16.1,16.1z"/>
		<path class="st4" d="M16.1,16.1l6.4-6.4c-1.1-1.1-2.5-1.9-4.1-2.4L16.1,16.1L16.1,16.1z"/>
		<path class="st3" d="M9.7,22.4c1.1,1.1,2.5,1.9,4,2.3l2.3-8.6L9.7,22.4z"/>
		<path class="st5" d="M13.8,24.7c0.7,0.2,1.5,0.3,2.3,0.3c0.8,0,1.6-0.1,2.3-0.3l-2.3-8.6L13.8,24.7z"/>
		<path class="st2" d="M24.7,18.4l-8.7-2.3l0,0l6.3,6.3C23.5,21.3,24.3,20,24.7,18.4z"/>
		<path class="st4" d="M18.4,24.7c1.5-0.4,2.9-1.2,4-2.3l-6.3-6.3L18.4,24.7z"/>
		<path class="st6" d="M16.1,16.1l-8.7,2.3c0.4,1.5,1.2,2.9,2.4,4L16.1,16.1L16.1,16.1z"/>
		<path class="st5" d="M16.1,16.1L16.1,16.1l2.4-8.8C17.7,7.1,16.9,7,16.1,7s-1.6,0.1-2.4,0.3L16.1,16.1L16.1,16.1z"/>
		<path class="st6" d="M9.6,9.7c-1.1,1.1-1.9,2.5-2.3,4.1l8.7,2.3L9.6,9.7z"/>
		<path d="M16.1,16.1l-8.7-2.3c-0.2,0.7-0.3,1.5-0.3,2.2c0,0.8,0.1,1.7,0.3,2.4L16.1,16.1L16.1,16.1z"/>
	</g>
	<circle class="st1" cx="16.1" cy="16" r="4"/>
</g>
</svg>
