<svg xmlns="http://www.w3.org/2000/svg" xmlns:xlink="http://www.w3.org/1999/xlink" viewBox="0 0 113.9632 85.7099"><defs><style>.cls-1{fill:url(#무제_그라디언트_2);}.cls-2{fill:url(#무제_그라디언트_5);}.cls-3{fill:url(#무제_그라디언트_3);}.cls-4,.cls-6{fill:none;}.cls-4{stroke:#231815;}.cls-5,.cls-7{fill:#fff;}.cls-6,.cls-7{stroke:#c73321;}.cls-7{stroke-miterlimit:10;}</style><linearGradient id="무제_그라디언트_2" x1="14.9892" y1="19.0834" x2="51.4059" y2="84.9062" gradientUnits="userSpaceOnUse"><stop offset="0" stop-color="#fad7d1"/><stop offset="0.0252" stop-color="#f8cec7"/><stop offset="0.145" stop-color="#f2a69a"/><stop offset="0.2697" stop-color="#ec8373"/><stop offset="0.3979" stop-color="#e76753"/><stop offset="0.5307" stop-color="#e4523b"/><stop offset="0.6699" stop-color="#e1422a"/><stop offset="0.8199" stop-color="#df391f"/><stop offset="1" stop-color="#df361c"/></linearGradient><linearGradient id="무제_그라디언트_5" x1="82.346" y1="22.542" x2="143.2209" y2="91.0974" gradientUnits="userSpaceOnUse"><stop offset="0" stop-color="#fad7d1"/><stop offset="0.0027" stop-color="#fad6cf"/><stop offset="0.08" stop-color="#f3b0a5"/><stop offset="0.1619" stop-color="#ee9081"/><stop offset="0.2513" stop-color="#e97462"/><stop offset="0.348" stop-color="#e65d48"/><stop offset="0.4549" stop-color="#e34c34"/><stop offset="0.5774" stop-color="#e13f27"/><stop offset="0.7294" stop-color="#df381e"/><stop offset="1" stop-color="#df361c"/></linearGradient><linearGradient id="무제_그라디언트_3" x1="47.5222" y1="42.2921" x2="93.0464" y2="60.4627" gradientUnits="userSpaceOnUse"><stop offset="0" stop-color="#fad7d1"/><stop offset="0.009" stop-color="#f9d2cb"/><stop offset="0.0812" stop-color="#f3aea2"/><stop offset="0.16" stop-color="#ee8d7e"/><stop offset="0.2446" stop-color="#e97260"/><stop offset="0.3369" stop-color="#e55c47"/><stop offset="0.4398" stop-color="#e34b34"/><stop offset="0.5595" stop-color="#e13f26"/><stop offset="0.711" stop-color="#df381e"/><stop offset="1" stop-color="#df361c"/></linearGradient></defs><g id="레이어_2" data-name="레이어 2"><path class="cls-1" d="M49.4733,23.3329,17.2228,10.0311a3.0439,3.0439,0,0,0-4.2044,2.8139V75.3632a3.9637,3.9637,0,0,0,2.3566,3.6233L49.266,94.02a4.0424,4.0424,0,0,0,1.8874.3229V23.5842A3.6646,3.6646,0,0,1,49.4733,23.3329Z" transform="translate(-13.0184 -8.641)"/><path class="cls-2" d="M124.3217,22.6533,91.2727,8.9372a4.0732,4.0732,0,0,0-1.2481-.282V79a3.3811,3.3811,0,0,1,.8593.2149l30.609,12.6534a3.9715,3.9715,0,0,0,5.4887-3.67V26.637A4.313,4.313,0,0,0,124.3217,22.6533Z" transform="translate(-13.0184 -8.641)"/><path class="cls-3" d="M88.18,8.9194,52.25,23.3459a3.662,3.662,0,0,1-1.0964.2383V94.3428a4.04,4.04,0,0,0,1.3153-.2835L88.2823,79.2164A3.389,3.389,0,0,1,90.0246,79V8.6552A4.0724,4.0724,0,0,0,88.18,8.9194Z" transform="translate(-13.0184 -8.641)"/><path class="cls-4" d="M71.32,62.5747a2.3918,2.3918,0,0,0-1.7436,4.0192,2.4214,2.4214,0,0,0,1.8075.7593,2.28,2.28,0,0,0,1.6234-.7011A2.3862,2.3862,0,0,0,71.32,62.5747Z" transform="translate(-13.0184 -8.641)"/><path class="cls-4" d="M76.1983,48.3905a6.8463,6.8463,0,0,0-4.396-1.2551,9.5629,9.5629,0,0,0-4.1054.8864,7.4132,7.4132,0,0,0-2.502,1.83.7832.7832,0,0,0-.0045,1.016l1.0535,1.2525a.7833.7833,0,0,0,1.1453.0493,6.9673,6.9673,0,0,1,1.6194-1.1488,5.661,5.661,0,0,1,2.6235-.6664,2.8423,2.8423,0,0,1,1.8082.5034,1.72,1.72,0,0,1,.631,1.4253,2.82,2.82,0,0,1-.4751,1.5668,4.4737,4.4737,0,0,1-1.3968,1.3121,6.3343,6.3343,0,0,0-1.9641,1.9068,4.6068,4.6068,0,0,0-.645,2.4751v.4818a.78.78,0,0,0,.78.78h1.786a.78.78,0,0,0,.78-.78h0a2.912,2.912,0,0,1,.3754-1.5032,3.5741,3.5741,0,0,1,1.1562-1.1485A7.6642,7.6642,0,0,0,76.9358,54.95a5.7315,5.7315,0,0,0,.8226-3.0209A4.2835,4.2835,0,0,0,76.1983,48.3905Z" transform="translate(-13.0184 -8.641)"/><path class="cls-5" d="M71.32,62.5747a2.3918,2.3918,0,0,0-1.7436,4.0192,2.4214,2.4214,0,0,0,1.8075.7593,2.28,2.28,0,0,0,1.6234-.7011A2.3862,2.3862,0,0,0,71.32,62.5747Z" transform="translate(-13.0184 -8.641)"/><path class="cls-5" d="M76.1983,48.3905a6.8463,6.8463,0,0,0-4.396-1.2551,9.5629,9.5629,0,0,0-4.1054.8864,7.4132,7.4132,0,0,0-2.502,1.83.7832.7832,0,0,0-.0045,1.016l1.0535,1.2525a.7833.7833,0,0,0,1.1453.0493,6.9673,6.9673,0,0,1,1.6194-1.1488,5.661,5.661,0,0,1,2.6235-.6664,2.8423,2.8423,0,0,1,1.8082.5034,1.72,1.72,0,0,1,.631,1.4253,2.82,2.82,0,0,1-.4751,1.5668,4.4737,4.4737,0,0,1-1.3968,1.3121,6.3343,6.3343,0,0,0-1.9641,1.9068,4.6068,4.6068,0,0,0-.645,2.4751v.4818a.78.78,0,0,0,.78.78h1.786a.78.78,0,0,0,.78-.78h0a2.912,2.912,0,0,1,.3754-1.5032,3.5741,3.5741,0,0,1,1.1562-1.1485A7.6642,7.6642,0,0,0,76.9358,54.95a5.7315,5.7315,0,0,0,.8226-3.0209A4.2835,4.2835,0,0,0,76.1983,48.3905Z" transform="translate(-13.0184 -8.641)"/><path class="cls-6" d="M71.32,62.5747a2.3918,2.3918,0,0,0-1.7436,4.0192,2.4214,2.4214,0,0,0,1.8075.7593,2.28,2.28,0,0,0,1.6234-.7011A2.3862,2.3862,0,0,0,71.32,62.5747Z" transform="translate(-13.0184 -8.641)"/><path class="cls-6" d="M76.1983,48.3905a6.8463,6.8463,0,0,0-4.396-1.2551,9.5629,9.5629,0,0,0-4.1054.8864,7.4132,7.4132,0,0,0-2.502,1.83.7832.7832,0,0,0-.0045,1.016l1.0535,1.2525a.7833.7833,0,0,0,1.1453.0493,6.9673,6.9673,0,0,1,1.6194-1.1488,5.661,5.661,0,0,1,2.6235-.6664,2.8423,2.8423,0,0,1,1.8082.5034,1.72,1.72,0,0,1,.631,1.4253,2.82,2.82,0,0,1-.4751,1.5668,4.4737,4.4737,0,0,1-1.3968,1.3121,6.3343,6.3343,0,0,0-1.9641,1.9068,4.6068,4.6068,0,0,0-.645,2.4751v.4818a.78.78,0,0,0,.78.78h1.786a.78.78,0,0,0,.78-.78h0a2.912,2.912,0,0,1,.3754-1.5032,3.5741,3.5741,0,0,1,1.1562-1.1485A7.6642,7.6642,0,0,0,76.9358,54.95a5.7315,5.7315,0,0,0,.8226-3.0209A4.2835,4.2835,0,0,0,76.1983,48.3905Z" transform="translate(-13.0184 -8.641)"/><path class="cls-7" d="M80.54,48.5486a1.8968,1.8968,0,0,1-1.5208-.76A8.8817,8.8817,0,0,0,72.15,44.8572a11.42,11.42,0,0,0-7.6776,3.0946A1.8992,1.8992,0,0,1,61.7,45.355a15.09,15.09,0,0,1,10.45-4.296,12.6756,12.6756,0,0,1,9.9079,4.451A1.8992,1.8992,0,0,1,80.54,48.5486Z" transform="translate(-13.0184 -8.641)"/><path class="cls-7" d="M84.7327,44.4024a1.8928,1.8928,0,0,1-1.3546-.5683,18.2125,18.2125,0,0,0-11.6215-4.3816A14.2,14.2,0,0,0,60.6907,43.718a1.8991,1.8991,0,0,1-2.9262-2.4213,17.9706,17.9706,0,0,1,14.1071-5.6409,21.663,21.663,0,0,1,14.2157,5.5167,1.8988,1.8988,0,0,1-1.3546,3.23Z" transform="translate(-13.0184 -8.641)"/></g></svg>