<svg width="140" height="105" viewBox="0 0 140 105" fill="none" xmlns="http://www.w3.org/2000/svg">
<path d="M46.9274 104.023L2.55004 86.2808C1.79622 85.9782 1.15085 85.4604 0.696588 84.7936C0.242324 84.1267 -0.000165189 83.3412 8.44278e-08 82.5375V6.38401C0.000387533 5.7229 0.164911 5.07199 0.479362 4.48839C0.793813 3.90478 1.24859 3.40632 1.80353 3.03676C2.35848 2.6672 2.99677 2.43784 3.66239 2.36878C4.32801 2.29972 5.00051 2.39309 5.62109 2.64069L46.9274 19.1581V104.023Z" fill="url(#paint0_linear_2206_4020)"/>
<path d="M46.9277 104.022L93.073 85.1917V0L46.9277 18.8306V104.022Z" fill="url(#paint1_linear_2206_4020)"/>
<path d="M134.379 102.162L93.0723 85.5448V0L137.45 17.8742C138.204 18.179 138.849 18.7007 139.303 19.3725C139.757 20.0443 140 20.8357 140 21.6455V98.3907C139.999 99.0567 139.835 99.7125 139.52 100.3C139.206 100.888 138.751 101.391 138.197 101.763C137.642 102.135 137.004 102.366 136.338 102.436C135.673 102.505 135 102.411 134.379 102.162Z" fill="url(#paint2_linear_2206_4020)"/>
<g filter="url(#filter0_d_2206_4020)">
<path d="M65.6439 62.3466C65.1068 62.2281 64.6011 61.9967 64.1602 61.6678C63.7194 61.3389 63.3537 60.92 63.0872 60.4389C62.8206 59.9578 62.6594 59.4256 62.6143 58.8774C62.5693 58.3293 62.6414 57.7778 62.8257 57.2596C63.0205 56.7214 63.2512 56.1968 63.5165 55.6896C64.1851 54.3507 65.0622 53.1265 66.1149 52.0628C67.0082 51.1776 68.0107 50.41 69.0981 49.7783C70.1343 49.1896 71.1077 48.6087 72.0262 48.0356C72.9391 47.4707 73.7665 46.7781 74.4832 45.9788C75.2631 45.0613 75.786 43.9534 75.9985 42.7681C76.3815 41.2641 76.2741 39.6772 75.6922 38.2385C75.1218 36.9092 73.9232 36.0483 72.0967 35.6558C71.2632 35.447 70.3947 35.4196 69.5496 35.5753C68.7045 35.7311 67.9026 36.0664 67.1982 36.5585C66.259 37.2535 65.5 38.1634 64.9846 39.2119C64.6046 39.9606 63.9895 40.5641 63.2338 40.93C62.478 41.2958 61.6233 41.4037 60.8003 41.2373L60.2115 41.1038C59.6312 40.9821 59.087 40.7275 58.6216 40.3601C58.1561 39.9928 57.782 39.5226 57.5287 38.9864C57.2755 38.4502 57.15 37.8627 57.1619 37.2698C57.1738 36.677 57.3228 36.095 57.5973 35.5694C58.0255 34.77 58.5248 34.0107 59.089 33.3007C60.33 31.687 61.894 30.3501 63.6813 29.3756C65.2842 28.53 67.0524 28.0451 68.8623 27.9547C70.567 27.8555 72.2767 28.0305 73.9259 28.4728C75.7396 28.9419 77.4747 29.6745 79.0757 30.6473C80.545 31.5344 81.8319 32.6934 82.8674 34.0622C83.8517 35.3984 84.5394 36.9293 84.8848 38.5525C85.2444 40.349 85.2121 42.2019 84.7905 43.9849C84.4553 45.8569 83.7653 47.6475 82.7574 49.2602C81.987 50.428 81.0172 51.451 79.8922 52.2826C78.8795 53.008 77.7958 53.6287 76.6578 54.1352C75.5602 54.6162 74.509 55.1969 73.5177 55.8701C72.4786 56.591 71.5771 57.4923 70.8563 58.5314C70.5036 59.0373 70.2113 59.5826 69.9851 60.1564C69.6341 60.9758 69.0061 61.6458 68.2111 62.0491C67.416 62.4523 66.5045 62.5632 65.636 62.3623L65.6439 62.3466ZM62.0877 78.259C61.451 78.1352 60.8477 77.8782 60.3173 77.5048C59.787 77.1314 59.3416 76.65 59.0104 76.0924C58.3157 74.9315 58.1097 73.5426 58.4374 72.23C58.5569 71.5705 58.8065 70.9413 59.1718 70.3793C59.5371 69.8172 60.0106 69.3335 60.5648 68.9565C61.0955 68.5828 61.7 68.3271 62.3378 68.2066C62.9756 68.086 63.6317 68.1035 64.2622 68.2578C64.9111 68.3761 65.5273 68.6321 66.0689 69.0085C66.6106 69.385 67.0652 69.8732 67.4023 70.4402C68.0584 71.6146 68.2609 72.9888 67.9715 74.3025C67.6821 75.6163 66.9211 76.7782 65.8322 77.5682C65.2929 77.9426 64.6802 78.1979 64.0345 78.317C63.3889 78.4361 62.7251 78.4163 62.0877 78.259Z" fill="url(#paint3_linear_2206_4020)"/>
</g>
<defs>
<filter id="filter0_d_2206_4020" x="47.1611" y="17.9277" width="47.9712" height="70.4658" filterUnits="userSpaceOnUse" color-interpolation-filters="sRGB">
<feFlood flood-opacity="0" result="BackgroundImageFix"/>
<feColorMatrix in="SourceAlpha" type="matrix" values="0 0 0 0 0 0 0 0 0 0 0 0 0 0 0 0 0 0 127 0" result="hardAlpha"/>
<feOffset/>
<feGaussianBlur stdDeviation="5"/>
<feColorMatrix type="matrix" values="0 0 0 0 0 0 0 0 0 0 0 0 0 0 0 0 0 0 0.25 0"/>
<feBlend mode="normal" in2="BackgroundImageFix" result="effect1_dropShadow_2206_4020"/>
<feBlend mode="normal" in="SourceGraphic" in2="effect1_dropShadow_2206_4020" result="shape"/>
</filter>
<linearGradient id="paint0_linear_2206_4020" x1="-10.4687" y1="3.33477" x2="66.4877" y2="64.2" gradientUnits="userSpaceOnUse">
<stop stop-color="#EBF5FF"/>
<stop offset="0.99" stop-color="#A7D4F9"/>
</linearGradient>
<linearGradient id="paint1_linear_2206_4020" x1="42.2775" y1="8.65301" x2="101.051" y2="61.0874" gradientUnits="userSpaceOnUse">
<stop stop-color="#EBF5FF"/>
<stop offset="0.99" stop-color="#A7D4F9"/>
</linearGradient>
<linearGradient id="paint2_linear_2206_4020" x1="80.1031" y1="1.5305" x2="157.496" y2="62.2774" gradientUnits="userSpaceOnUse">
<stop stop-color="#EBF5FF"/>
<stop offset="0.99" stop-color="#A7D4F9"/>
</linearGradient>
<linearGradient id="paint3_linear_2206_4020" x1="67.5733" y1="26.9498" x2="90.3211" y2="62.0951" gradientUnits="userSpaceOnUse">
<stop stop-color="#208DFB"/>
<stop offset="0.99" stop-color="#0258AE"/>
</linearGradient>
</defs>
</svg>
