<svg width="14" height="14" viewBox="0 0 14 14" fill="none" xmlns="http://www.w3.org/2000/svg">
<path d="M11.0206 10.0787L13.8759 12.9333L12.9326 13.8767L10.0779 11.0213C9.01575 11.8728 7.69459 12.3359 6.33325 12.334C3.02125 12.334 0.333252 9.64598 0.333252 6.33398C0.333252 3.02198 3.02125 0.333984 6.33325 0.333984C9.64525 0.333984 12.3333 3.02198 12.3333 6.33398C12.3352 7.69532 11.8721 9.01648 11.0206 10.0787ZM9.68325 9.58398C10.5293 8.71391 11.0018 7.5476 10.9999 6.33398C10.9999 3.75532 8.91125 1.66732 6.33325 1.66732C3.75459 1.66732 1.66659 3.75532 1.66659 6.33398C1.66659 8.91198 3.75459 11.0007 6.33325 11.0007C7.54687 11.0026 8.71318 10.5301 9.58325 9.68398L9.68325 9.58398Z" fill="#767676"/>
</svg>
