<svg width="24" height="24" viewBox="0 0 24 24" fill="none" xmlns="http://www.w3.org/2000/svg">
<path d="M11.2108 5.57812H5.60242C5.17744 5.57813 4.76986 5.74695 4.46935 6.04746C4.16884 6.34797 4.00002 6.75555 4.00002 7.18053V18.3974C4.00002 18.8224 4.16884 19.2299 4.46935 19.5305C4.76986 19.831 5.17744 19.9998 5.60242 19.9998H16.8193C17.2443 19.9998 17.6518 19.831 17.9523 19.5305C18.2529 19.2299 18.4217 18.8224 18.4217 18.3974V12.789" stroke="#515151" stroke-width="1.5" stroke-linecap="round" stroke-linejoin="round"/>
<path d="M17.2199 4.37671C17.5386 4.05797 17.9709 3.87891 18.4217 3.87891C18.8725 3.87891 19.3048 4.05797 19.6235 4.37671C19.9422 4.69545 20.1213 5.12775 20.1213 5.57852C20.1213 6.02928 19.9422 6.46158 19.6235 6.78032L12.0121 14.3918L8.80724 15.193L9.60845 11.9881L17.2199 4.37671Z" stroke="#515151" stroke-width="1.5" stroke-linecap="round" stroke-linejoin="round"/>
</svg>
